<mxfile host="65bd71144e">
    <diagram id="wSyKNVxhwnAg83OyohW9" name="Page-1">
        <mxGraphModel dx="683" dy="766" grid="1" gridSize="10" guides="1" tooltips="1" connect="1" arrows="1" fold="1" page="1" pageScale="1" pageWidth="850" pageHeight="1100" math="0" shadow="0">
            <root>
                <mxCell id="0"/>
                <mxCell id="1" parent="0"/>
                <mxCell id="2" value="http://ics2o.mths.ca" style="swimlane;whiteSpace=wrap;html=1;fillColor=#a0522d;strokeColor=#6D1F00;fontColor=#ffffff;" vertex="1" parent="1">
                    <mxGeometry x="45" y="40" width="760" height="480" as="geometry"/>
                </mxCell>
                <mxCell id="4" value="&lt;font style=&quot;font-size: 20px;&quot;&gt;CHECK RANDOM FACTS&lt;/font&gt;" style="rounded=1;whiteSpace=wrap;html=1;fillColor=#FF6666;" vertex="1" parent="2">
                    <mxGeometry x="40" y="50" width="250" height="40" as="geometry"/>
                </mxCell>
                <mxCell id="5" value="&lt;div&gt;&lt;span style=&quot;font-size: 20px;&quot;&gt;&lt;b&gt;Name&lt;/b&gt;: xxxx (xxx)&lt;/span&gt;&lt;/div&gt;&lt;div&gt;&lt;span style=&quot;font-size: 20px;&quot;&gt;&lt;b&gt;Location&lt;/b&gt;: xxxx&lt;/span&gt;&lt;/div&gt;&lt;div&gt;&lt;span style=&quot;font-size: 20px;&quot;&gt;&lt;b&gt;Last&lt;/b&gt; &lt;b&gt;Record&lt;/b&gt;: xxxx&lt;/span&gt;&lt;/div&gt;&lt;div&gt;&lt;span style=&quot;font-size: 20px;&quot;&gt;&lt;b&gt;Short&lt;/b&gt; &lt;b&gt;Description&lt;/b&gt;: xxxxxxxx&lt;/span&gt;&lt;/div&gt;" style="text;html=1;align=left;verticalAlign=middle;resizable=0;points=[];autosize=1;strokeColor=none;fillColor=none;" vertex="1" parent="2">
                    <mxGeometry x="40" y="120" width="280" height="110" as="geometry"/>
                </mxCell>
                <mxCell id="7" value="" style="shape=image;verticalLabelPosition=bottom;labelBackgroundColor=default;verticalAlign=top;aspect=fixed;imageAspect=0;image=data:image/jpeg,/9j/4AAQSkZJRgABAQEBLAEsAAD/4QBeRXhpZgAASUkqAAgAAAADAA4BAgAUAAAAMgAAABoBBQABAAAARgAAABsBBQABAAAATgAAAAAAAAAzZCByZWQgcXVlc3Rpb24gbWFyaywBAAABAAAALAEAAAEAAAD/4QWSaHR0cDovL25zLmFkb2JlLmNvbS94YXAvMS4wLwA8P3hwYWNrZXQgYmVnaW49Iu+7vyIgaWQ9Ilc1TTBNcENlaGlIenJlU3pOVGN6a2M5ZCI/Pgo8eDp4bXBtZXRhIHhtbG5zOng9ImFkb2JlOm5zOm1ldGEvIj4KCTxyZGY6UkRGIHhtbG5zOnJkZj0iaHR0cDovL3d3dy53My5vcmcvMTk5OS8wMi8yMi1yZGYtc3ludGF4LW5zIyI+CgkJPHJkZjpEZXNjcmlwdGlvbiByZGY6YWJvdXQ9IiIgeG1sbnM6cGhvdG9zaG9wPSJodHRwOi8vbnMuYWRvYmUuY29tL3Bob3Rvc2hvcC8xLjAvIiB4bWxuczpJcHRjNHhtcENvcmU9Imh0dHA6Ly9pcHRjLm9yZy9zdGQvSXB0YzR4bXBDb3JlLzEuMC94bWxucy8iICAgeG1sbnM6R2V0dHlJbWFnZXNHSUZUPSJodHRwOi8veG1wLmdldHR5aW1hZ2VzLmNvbS9naWZ0LzEuMC8iIHhtbG5zOmRjPSJodHRwOi8vcHVybC5vcmcvZGMvZWxlbWVudHMvMS4xLyIgeG1sbnM6cGx1cz0iaHR0cDovL25zLnVzZXBsdXMub3JnL2xkZi94bXAvMS4wLyIgIHhtbG5zOmlwdGNFeHQ9Imh0dHA6Ly9pcHRjLm9yZy9zdGQvSXB0YzR4bXBFeHQvMjAwOC0wMi0yOS8iIHhtbG5zOnhtcFJpZ2h0cz0iaHR0cDovL25zLmFkb2JlLmNvbS94YXAvMS4wL3JpZ2h0cy8iIHBob3Rvc2hvcDpDcmVkaXQ9IkdldHR5IEltYWdlcy9pU3RvY2twaG90byIgR2V0dHlJbWFnZXNHSUZUOkFzc2V0SUQ9IjEzMzQ0MTk5ODkiIHhtcFJpZ2h0czpXZWJTdGF0ZW1lbnQ9Imh0dHBzOi8vd3d3LmlzdG9ja3Bob3RvLmNvbS9sZWdhbC9saWNlbnNlLWFncmVlbWVudD91dG1fbWVkaXVtPW9yZ2FuaWMmYW1wO3V0bV9zb3VyY2U9Z29vZ2xlJmFtcDt1dG1fY2FtcGFpZ249aXB0Y3VybCIgcGx1czpEYXRhTWluaW5nPSJodHRwOi8vbnMudXNlcGx1cy5vcmcvbGRmL3ZvY2FiL0RNSS1QUk9ISUJJVEVELUVYQ0VQVFNFQVJDSEVOR0lORUlOREVYSU5HIiA+CjxkYzpjcmVhdG9yPjxyZGY6U2VxPjxyZGY6bGk+RHVhbiBaZUZhbjwvcmRmOmxpPjwvcmRmOlNlcT48L2RjOmNyZWF0b3I+PGRjOmRlc2NyaXB0aW9uPjxyZGY6QWx0PjxyZGY6bGkgeG1sOmxhbmc9IngtZGVmYXVsdCI+M2QgcmVkIHF1ZXN0aW9uIG1hcms8L3JkZjpsaT48L3JkZjpBbHQ+PC9kYzpkZXNjcmlwdGlvbj4KPHBsdXM6TGljZW5zb3I+PHJkZjpTZXE+PHJkZjpsaSByZGY6cGFyc2VUeXBlPSdSZXNvdXJjZSc+PHBsdXM6TGljZW5zb3JVUkw+aHR0cHM6Ly93d3cuaXN0b2NrcGhvdG8uY29tL3Bob3RvL2xpY2Vuc2UtZ20xMzM0NDE5OTg5LT91dG1fbWVkaXVtPW9yZ2FuaWMmYW1wO3V0bV9zb3VyY2U9Z29vZ2xlJmFtcDt1dG1fY2FtcGFpZ249aXB0Y3VybDwvcGx1czpMaWNlbnNvclVSTD48L3JkZjpsaT48L3JkZjpTZXE+PC9wbHVzOkxpY2Vuc29yPgoJCTwvcmRmOkRlc2NyaXB0aW9uPgoJPC9yZGY6UkRGPgo8L3g6eG1wbWV0YT4KPD94cGFja2V0IGVuZD0idyI/Pgr/7QBiUGhvdG9zaG9wIDMuMAA4QklNBAQAAAAAAEUcAlAACkR1YW4gWmVGYW4cAngAFDNkIHJlZCBxdWVzdGlvbiBtYXJrHAJuABhHZXR0eSBJbWFnZXMvaVN0b2NrcGhvdG8A/9sAQwAKBwcIBwYKCAgICwoKCw4YEA4NDQ4dFRYRGCMfJSQiHyIhJis3LyYpNCkhIjBBMTQ5Oz4+PiUuRElDPEg3PT47/9sAQwEKCwsODQ4cEBAcOygiKDs7Ozs7Ozs7Ozs7Ozs7Ozs7Ozs7Ozs7Ozs7Ozs7Ozs7Ozs7Ozs7Ozs7Ozs7Ozs7Ozs7/8IAEQgCZAJkAwERAAIRAQMRAf/EABsAAQEAAwEBAQAAAAAAAAAAAAABAgQFAwYH/8QAGQEBAAMBAQAAAAAAAAAAAAAAAAECAwQF/9oADAMBAAIQAxAAAAH7IAAAAAAAAAAAAAAAAAAAAAAAAAAAAAAAAAAAAAAFAAAAAAAAAAAAAAAAAAAAAAAAAAAAAAAAAAAAAICgAAAAAAAAAAAAAAAAAAAAAAAAAAAAAAAAAAAAEBQAAAAAAAAAAAAAAAAAAAAAAAAAAAAAAAAAAAACAoAAAAAAAAAAAAAAAAAAAAAAAAAAAAAAAAAAAABAUAAAAAAAAAAAAAAAAAAAAAAAAAAAAAAAAAAAAAgKAAAAAAAAAAAAAAAAAAAAAAAAAAAAAAAAAAAAAQFAAAAAAAAAAAAAAAAAAAAAAAAAAAAAAAAAAAAAICgAAAAAAAAAAAAAGMTpV6Nau2vGnlFomo9Zr7Tn7zSGU12Zy2LZUAAAAAAAAAAAAAAAEBQAAAAAAAAAAAADWrryc+3mU6fKWBCQAFlkbM02Vck+cW27c/S05Ny2IAAAAAAAAAAAAAAgKAAAAAAAAAAAAecW4mXocinV5TEgCQAABCozluTT2ifGL7NsOzrwbdsQAAAAAAAAAAAABAUAAAAAAAAAAAGpXb5vH09OLYpAAAAAAAHpMbiLFojp6cfY14MgAAAAAAAAAAAAQFAAAAAAAAAAANGm/wAxl6fhFoAAAAAAAACo2D3Ws12rYd/XzM5gAAAAAAAAAAACAoAAAAAAAAAANSu3ymPqeEWAAAAAAAAAAp7GwnOabNsfoNfMymAAAAAAAAAAABAUAAAAAAAAAA84t8jh6+pFwAAAAAAAAAAKe5sIs16F+Xua8AAAAAAAAAAAAgKAAAAAAAAAAfN4+lx6dUAAAAASQSAAAARAZmwe85pd3Xzt+2AAAAAAAAAAAEBQAAAAAAAAAaVdvksPW8ypAgAABDFMhZZIoAAAAPVG1NMpr6zT6bby8gAAAAAAAAAAQFAAAAAAAAAB8rj6nLp0EgAAAQ8YtnbLdvz+00RPhXXQr0+xUAAACo2pj1nJLuacPStzgAAAAAAAAACAoAAAAAAAABq11+Nw9fFIAAAGKfA6enF0L4Zo6M5b055GrF/kcfV16bZTAAAA9ldm2SY25x+k14AAAAAAAAAABAUAAAAAAAAA4Ofd8/l3gAAAYxPhLq68O3bLJHbnn2pqAMIn4jD2PKNagAADJG1bLOc0vq9PN9JgAAAAAAAAACAoAAAAAAAAB8nj6nMp0gAAAnXiehrx7lsB3rc27NAABo11+K5/a9JgAgAU2Jz9r4D6G/Fv2yAAAAAAAAAAgKAAAAAAAAAfG4etpV6AAAB5ROVsejpySXWnHuW5wAAB8Xz+xqRsAAAPac/e/PUdm/N2Lc4AAAAAAAAAEBQAAAAAAAAD5LH1ObTqAAAxifGY6enFlNfWa/VX4swAAAfOZehw8u5IAAD0U99OYjrWw71+UAAAAAAAAACAoAAAAAAAABxqdXy+Hq5IAAh4LdDTj274D6C3LuTQAAADjZ9fzOPpgAACzXO/OOtbn+l04wAAAAAAAAAICgAAAAAAAAEPjcPW0adNQBE+Sdy/L0tOYdWcOnbEAAAAcmnV8th6gAAAxl4zkR27831mvAAAAAAAAAABAUAAAAAAAAAGB8xl6PDy7iYZzTpacu/bDNHRtjvzkAAAABxs+v5nH04kAUA8TWmhH0mnF9VrwgAAAAAAAAAQFAAAAAAAAAAB5xOjGsPea5oyR7TWgAAAAA+cy9HhZdwAAA1jXmg+w1876HTkAAAAAAAAAAgKAAAAAAAAAAAAAAAAAAADCJ+L5/a1o0AAAhpnlNR+g7+P0bZAAAAAAAAAAQFAAAAAAAAAAAAAAAAAAABwsu753L0YAAAeadKaxHtNP0ro8XIAAAAAAAAAAgKAAAAAAAAAAAAAAAAAAAaVdvksPX8YtCkKAE6ydacx9Bpx/Za+cAAAAAAAAAAICgAAAAAAAAAAAAAAAAAA8Iv8lz+xpxrAAAUxNM85oP0Hfx+jbIAAAAAAAAAAQFAAAAAAAAAAAAAAAAAAPCL/ACuHr6FdoAAADxidW2cOvfm+728sAAAAAAAAAACAoAAAAAAAAAAAAAAAAANeunyuPraNdoAAADCJ8LU8lckff7+Rv2zAAAAAAAAAAAgKAAAAAAAAAAAAAAAAAatdflcPW041kEkAABE+c1xtjD6PTj+m04gAAAAAAAAAABAUAAAAAAAAAAAAAAAAGtXT5PD19OupIAAAhhMbmnHnbPbU+q04qAAAAAAAAAAACAoAAAAAAAAAAAAAAAB4xb5Pn9jQrvAAAADA6OvDu3w9Zr3rc3ogAAAAAAAAAAACAoAAAAAAAAAAAAAAAIfK4evyc+qAAAAGB0dePoX5vSa9ueb1mAAAAAAAAAAAABAUAAAAAAAAAAAAAAAHDy7vnMvSwiQAAAMTo68fQvze017E83rMAAAAAAAAAAAAAQFAAAAAAAAAAAAAAAPCL/F83t+EaAAAARHS14t+/P7zTr25/RAAAAAAAAAAAAAAgKAAAAAAAAAAAAAAAfOY+lwcvQgAAAJNerrw7lsdiadi3NkAAAAAAAAAAAAAAQFAAAAAAAAAAAAAAB5xPxHN73hFwAAAmOprwblsdiadi3NkAAAAAAAAAAAAAACAoAAAAAAAAAAAAAAOVTq+T5/YiQAARDp68O7fD1V7d+XNAAAAAAAAAAAAAAAEBQAAAAAAAAAAAAAAfNY+nwsvQAAAhu6cnQvypd63JsTQAAAAAAAAAAAAAAAQFAAAAAAAAAAAAAAB8dz+zzqdQAABXpbcJG5OX0mnEAAAAAAAAAAAAAAABAUAAAAAAAAAAAAAAHw/L7urGwAAGCuNs8In6nbzvodOIAAAAAAAAAAAAAAACAoAAAAAAAAAAAAAAPhOX3/CNQgAmET4TXzmo+z38ntX5QAAAAAAAAAAAAAAAICgAAAAAAAAAAAAAA+G5fe1q7AAAeM185qPtt/I61+YAAAAAAAAAAAAAAACAoAAAAAAAAAAAAAAPjef2ufn1AAAeM1wmo+76PF6FsQAAAAAAAAAAAAAAAICgAAAAAAAAAAAAAA+ey9D53D1KAAD1vzbFstm2f1Wvm5AAAAAAAAAAAAAAAAEBQAAAAAAAAAAAAAAeUW+H5ve8q6kADbvz9HTj9Jr178u3OYAAAAAAAAAAAAAAAAgKAAAAAAAAAAAAAAAatdfmcfU0qdAymvtbPr6cO9bDcnL0mAAAAAAAAAAAAAAAAAICgAAAAAAAAAAAAAAAhrV08I0zmu5bHIAAAAAAAAAAAAAAAAAAEBQAAAAAAAAAAAAAAAAAAAAAAAAAAAAAAAAAAAACAoAAAAAAAAAAAABCgAhQYnjE5y9UQoAAAAAAAAAAAAAAAABAUAAAAAAAAAAAAAAAGnXbRp06kX5ca4TTKa7k59y3P0rYgAAAAAAAAAAAAAAAAQFAIUAEKCFIUEKQpAAAAAYRPz2Pq83PswTUbU5YrY2yWyI7N+bs35ABSFICgAAAAAAhQCFAABAUAAgBQQpCkAAAAAAAB8vz+zys+vFIFM0bE5+l8ZNCPodeDftgAAKQFIUEKAQoAIUAAAAEAAAAAAAAAAAAAAAOZn1/K8/tQAApkjatjlfEjYnP6fbzAAAAAAAAAAAAAAAAAAAAAAAAAAAAAAAB8rz+zy8+ygAIoPWa+9+ZMYxP1m/ke01AAAAAAAAAAAAAAAAAAAAAAAAAAAAAAA+N5fe1a7kCgAoRnfLyRIn7To8XZtmAAAAAAAAAAAAAAAAAAAAAAAAAAAAAAB8nze1o06gKEAUsxJz2L4+qv0+3l+k1AAAAAAAAAAAAAAAAAAAAAAAAAAAAAAA4ePo8PH0gLIgCmc1978+c095z+i184AAAAQAAAAAAAAAAFIUAAAAAAAAAAAAAAGvXT5Xn9vCLgAig9LZ+9sMpr2dOLdtgAAAIAAAAAAAAAAACkMgAAAAAAAAAAACAAA42Xfx8vRkSABlNfS2PvfDo25unfmAAgAIAAAAAAAAACgAAzAAAAAIAAAAAAAAAQHGy9Dl5d2KyAsxnbHo68XQtz7M5gAQAgAIAAAAAACgAAoAPQAAAAgAAABAAACAAAA1a68+nX410ymNu/Nv25s5gCAgICAAAAAFAAAKACgFAB6AAAAgAABACAAgAIACAEBCGJAQAoABQUFBQUFABQAUAFABQDIAAAgAABAAQAgBAQhCGJiYGB5nmQGRTIyMjIpkUyMilKCgoBQAUAAAoAAAKAACAAAAgAIAQAgBAQxIQxMTEhiAUyMzIyKUpQUFAKAUAFAAABQAAQoAAIAAAAQAAgAIACAAgAAAAKAAUAFAAKACgAAFAAAAAAAABAAAAACAAAAEAAAAAAAAAAKAACgAAAoAAAAAAAAAAAIAAAAAAAAAAAAQAAAAAoAAAABQAAAAAAAAAAAAAAAAACAAAAAAAAAAAAAAAFAAAAAAAAAAAAAAAAAAAAAAAAAAAAAAAAAAAAAAAAAAAAAAAAAAAAAAAAAAAAAAAAAAAAAAAAAAAAAAAAAAAAAAAAAAAAAAAAAAAAAAAAAAAAAAAAAAAAAAAAAAAAAAAAAAAAAAAAAAAAAAAAAAAAAAAAAAAAAAAAAAAAAAABD/xAAtEAABAwIFAwMEAwEBAAAAAAABAAIDBBEQEhMwUAUgYBQhIyIxNEAkMpAVcP/aAAgBAQABBQL/ACGLg0Oq4gjXFGsevVOXqV6lCpQqChNMvVPahXRptRE7n5J44lJXPKdISc6ur9t1mKbUyNXqGPWmx6+SIsrXhR1McnNOe1jZq0uRcr7ocmVBCsx6Iso6iSNRVDJeXmnbCJZnSuv+iHWTZLi2ENWQgQRydRUCEPeXH9Rr8YZzEWuD28jUTiFj3lzv1muQOEMxicCHDj3vEbJpTK/9gFA4U02R3H1s+d/7IKacaWXOzjaqbSiJ3LrMFnCzDcaUMI36cgNxxlZLqTbZfdNhe9NogvRRr/nhyf06oYruYQb7ITTjRyZo+LqZNKA7RNl7vMUCFgvuo6dAWwmp4p21VI+kcDfZacaZ+Sbi+ov2ibL+5ijtgLuMMIjHY5oe2ppzSTbAQxY7Oziq516nZP1GFlldXVPDpt7quD1EDdkY0brwcVWfl7Dio2YXVFDmOxWx6VZsNxoD7cV1FuWr7yU0Zi1tgoojLI1oa3Y6q3ZGNAfk4rqUOpADfvP1GKNWVlTw6TNnqY/j7OZZl043n4utpTTSA37SS4xRK2FNBbb6j+NsFZlmXSveo4tzQ5tT0tzSc7DqLOhG96jp7INsgwuUVOG7nUj8Ow77YdHH18a5jHo0FOUKCEIUsYWgxaTFa271F95Nh5x6O20HPucGtmfqP7ynY0DNOi5+vnR2HI4RM1ZQLDnqmfRY919l5x6RDmn56WVsLJpXSP2CnY0MGhS87LK2Fk87pXbLjj06n16jnZpmwtmmdI6+ySjgGlxo6cU0HOTztgbLK57tr7q11lXTaTnZpmwsllL3bXu4iJaap6TVeBYc3JI2Jk8xkftfcxRWVlHEZHMYGN5s+wqqjVeffa+6hhsrWTGF7mMEbecrp0Tfa93GKGytZMjMhYwRjnJpBFFI4uOyAXGKGy+yjjMha0MHO9Qlu/ZALzFFbCKIyEANHOvdkZI4udsAF5jjsFFEZCAAOer35YDsf2MUdsI2GRzWho5/qT/k2IWYwx6bPAK516rvaLua4AGUKj+WfwGpN6nvvZZysy6Q34vAZ/yO92PSh/E8Bqfaq73Y9M/C8B6g3LWd7sLKhbko/AeqxfT3iAuIpwo6cOcBYeAyMEscsToJO2ONBqDSVDDpjwOeBk7ZqJ8a0nLTctJMbdRUrwG0yaxrPB3U8T16GBNo6dqAA/8AGSQFrwoSMd4RJVRRp1c4p81Y9PLr2VlHUSxqGsbJ4I5wY2erdIs9lqISlCpci1jsLYUtT4HVVGq4m/aHWV79lLNqM8ArpckRN+8GyGMD9OXwDqD81TsMON1E7NFz9V+Vs51nKsSqb2p+frW2qdnTu4RhZUwWj5+vZ77ACGELM8vgE0epE4bIwpo8rfAauBW7wLqyhgv4JPS27mtLkyncUyBrfBpII5E6icvSyoUkpTKNoTWtb3XV1dXV1fnbq6usyzrOsyzLMsyurq/PXWZZlnK1CtUrVK1FqLUWcLMr9tlZW5uyyrIFphaQWiForRWitJaSyLKsqt/kR//EADARAAEEAAUCAwgCAwEAAAAAAAEAAgMRBBASMDFQYBMhQSAiMjNAQlFhFFIjcJBx/9oACAEDAQE/Af8AkMATwm4WQ8+SGEHqUMPGPReEz8Lw2/gLwx+AvCH9QjC3+q8KP9hfxmn4XI4V4RhePTr8cL38JmFY34vNDy8htGNpWhzfhK1kfEFTHp2FaeE+B7etNaXGgo8M1vm76AsCsjnJ8LXqSFzOrxRGQpjGsFN+mlw9+bURXVIYTIf0gABQ+m5yliD/AP1OaWmj1KKIyFAACh9OERlLEHhEV5HqDWlxoJjAwUPqQURlPHqGodQw8ekaj9dPHpN9Ohj1u3qVKt12T26m106Bmlm5xynTAI4grx3L+S4cpuLYeUCHcb07adfTIm6n1uOcGp8l5l/4zY9zD5KGcSeR52zlKLb0zCN5O252lPfebnX7IJBsKGXxW/vadmRRrpeGH+Pa4Ckdm91+3DJ4b7R2XZzD3ul4f5Y2QpHZyu9NnDO1RbLs5+l4U3HWy80nG8nO0hc7OCPI2XI5T8dLwsml9H12D5BSOze7UdrCfM2SiFSnHu9Mw82saTyq9nhSSZvf6DbwvzNkqlSxPw9MBpRYv0eg5ruFWTpGhOltWiaTpL43MIPf3MX6dOBI4Qnf+V4714jlrK1HewjfIncxZ96uwALNBMbpFbJzmNyHsDCxfedkI5PdpbfYEMXiO/SA3MU+m6evxxl5oJjA0UNo5zP1vvrzGF5oKOMMFDa4zxEmltdejjMhoKOMMFDbJyulK/W6+uxRGQ0ExgaKG251K1axEv2jrscZkNBMYGihtk6QnPWpPloddYwvNBRxhgobfCkkvJzqRN9dgi0D97fCkkvImkTfXcLF95Q2iaUkl5E0ib67GzW6k1tDaJDVJJeTnUib69hI/LVtOdpT5Lyc6lz15os0mNoVsudpT33k51dgYVtvvZJoKR95ONBE32Bgm+6Tsyvze6z2DhRUQ2HGgnBaFN7rewoPljYctKpYw+8B2FD8tuwc8X8zsKD5Tdg54r5p7CwhuLYOc5uQ9hYF/mW7DpF4qdIQL7Da4tNhRyCRtj2pJESiU9+rsSOV0ZsKPFNcvEC8QLxPwnur4inzAoyoknsdsr28FfyZEcRIfVXf+mtJVHshkEj+Ahg/7FDDwj1Qw4+1GKlpRjaU+IjjsRrS40FDhms8zyqWlaUYRyFZ4d5pzVSpSxfcOw8PBoH7VezSpEZzM0nsHCR6n3+Nlwzlbqb2Dg21Hey4I5UninEdgYf5Q2i1UvJS/GewMK64htOctStONnsDBv5bslOykdpb2DE/Q6007BROUz7NdhYab7Sr9opzlakl9B2JDifRyB9i094CdME6QnsZkz2cJuLHqF/KjRxbE/FOPCLief8Art//xAAnEQABBAEEAQUAAwEAAAAAAAABAAIRMGAQEjFQIQMgQEFREzKQcP/aAAgBAgEBPwH/ACH3hb1uKkqVKlSVJW9bwtw78uARea5UqF5CD0HA92X/AJ8CdQ4hB09uXQiZ+MHfvaudHyQY7MmPlgx2J8ImfmNPYOPzmnrnGB88eOucZNu1bFtC2BFhvb1hMCyEB7iJTmxaOsfWEBS4RUOufzWBU4SLR1buagNRS8eaRq3q380hCz1KRq3q3iRSBa/ixvWObHvA1Fb+LGdaWfnshBusWP4sZ1+0LaFHwH2M4wEmxvGAPP1YMAcYtYO/JhEza0QO+JhEza0ee+JhEzcBHekwiZrGrR996TCJmwBQgO9JhEzYBgDnTYBgDz9WAYATCNYGAvNQEoDAjSAgMCefFQGB+pS0YI/mgaSm+cCdzTOjMCdzWzjAnc1s4wJ/NbeMC9QfdAC2oDAz5REe4DUDBCJRYoUKEB+INUYRAWwLaP8AshcAv5Fuct63aSgcFc+dZW7QHUHA3OmtpwF5gUjUc4D6h82jAH/2tHGAP5qAUYF6gqGgwEiRYBgT2/dA0AwRzPz3AINUYMWgrYthWwoM/wBd/wD/xAA3EAABAgIFCQcDBAMAAAAAAAABAAIRMBIhMVBRAxAiMkFgYXGBEyBAUmJykTNCgiOQkqEEcPH/2gAIAQEABj8C/aGiTBVRdyVTQOZWsByC+o5a7/la+U+V9V6qy46hVdm7ktLIqsEKp4v/AEjXgtHRUSY85Wsv1GDmF+m/oVtatIUlbA8b6i4wChk9EY+AgawtGo4KtWxGBWBwveus7AouPg4Oz0cpWMVEXpC1yiTE+Ixbgoiy8o7TYESTEnxXDaoi8C51gRcfGUTqm8KA1W+Oom0XdVrGzx4coi7Tg2oTIDNXm0SVECkoOEJ1Hy3Y523ZM4Zqs0X/AAqs0HtjxUdZmM0carsazrL4KJzQC9XdLXCIKo/adUzQ7EXW7hKgo54nWPfLfutaoTOV15TnN7R1myS7B1cx4uuPmEwNQaLBJyb+kxw4XXTFuTr6SIKOf1G2UPdMPtuym36Z/rvQHcpu6S/ymO9t2UXCIKpf49Y8qg9pB458M9QUXVmY0eqZlDwF3aTQVqQVhVmayc1vlEx7sXbgFxsCLjtmZMYiO4HZD8pjWD7ioC//AFGyacqbGC/6TkXOtmtadY1m/qTlSd0GE2J1WVm/ou6BUnf8mwFpQZ91rr9ibdgVJxrlx2KObt3j237E9AqTjXLgFwzV6otUBfhc5UnS4DPAKiL8iV6RZLgM8AoC/eyb+UuAzwCgL9L1E2mVAZ+CgL+oCxs3goC/i47ESdszgoC/6PmMmAzwUBuA1uAmcdu4L5fBte4WU90t7sTDcLKe4y/y3Cyvult5ncJ3GuXkxw3CblRsqMoABQ3CLHWFFju9XmqUTbuJB1uK4Z6yoZNseKrtVZVQ3HrYFYf5L6YPOtVCH+mazBfVb8rRe09dyIF0TgFoZL5Ks/iv1KXXPU7oVB2i7cSk4wCgNFvcgaxxUWaJ7nZvPI7h+kWS4HWbuDR2umA/O4Jb5RNY7EbgZTnNZy3AdxmtHDcAPmAbglsykbTuF2jesqk6zcSlk7MO/ZBYncasV4haLgVZ/a2BaRitEQ/d2//EAC4QAAMAAAMGBgICAgMAAAAAAAABESExURAwQVBhcSBggZGhscHRQPDh8XCAkP/aAAgBAQABPyH/AMhpRJq2ZqZ0H5mA2RbM/RiK4jSBRp90mPg2vsh569GODfZjATTVTvPviEzMJVL7sqk2rUbPiWUUpSsoSuJlDNaPEWYQZ7EDhn1k8GYGpPZmDdtzo5LI4svfcmXeeI2e8oxCL0BmZfrMhjRIzCUEwBPqub8fkcebRcEO/wCC5hOcIcYp1a7JP2BCEyp8VzSfYuS0H95mbG7/AA04SE1slszMLj63MuIhHHTB/wAZObC2zWT5BZfU8uYOigcWvJaIv8dObOi2Y9/gfMMYfyMbv8mHgMWfzrl1ttwd6miGrjsk7iJp7wbY9Rwz7CFMqeK5bgh7uG0hjRrGGL9jiPyINZhXgnTMxntoxCYbloyym2w7xyduWRDo7h90lBLTahCVai+WImJBNtEq3sEhIiS6bIL/ACIjLbXhp7i03MmLZ0Xicsx/XD3MAk/lCVSOy0KKiutlE8WzfhX2SjTM6njgnVuHGy2WOneY5XJaEvjctwdxCUXAstjFgYJ/g8a+HsTqO82a3CzHw2y1ra5W2B0fW5mizx45limzgFg9z3OGlMH65/O5bAWWz1ynyvoZb/G4kjEeC+TvxBaMuL0QhGIi3OP3m3LieBeWWvSuu/YSXxNwqIktHDYxuIVj7oWfov09ynKLBsxfV9rleajG5Nfh16CfAbhmAL9uL1FChDALx4N3l9m5aJ7Ruy/NcsZkMA0+IzO6l4rsPFFwSbFvIcYqCbFRfLIokPoxjRds03neVfG5cUpbRo/vty5bFPVD+z2GRhkbHRfuJf7iRIklvZDqP1/1uq7Oyt7L/PkBiMRWNzc93DYD47bhnT64+QOJ5Y/oPXuGwHr2PzchCFYCSi5+nDxyv5GM663i3vCHOA7vn7z6S1Y0LF8Ge4eIbbKE9zfPmRvZcWUIBuvc0Hi9k1fzGi59X2LyM2PbceC4B09zJGFdWQUV1kSOKRidee5hG9Qe6m+BuvctwSttkG7VsTfpL++e562/UH+hvgbu6gyyS4PnZx9fudBCERLJc8cVgvkbnY8FohuvdOkTfbJRwGcXoIyYlzxkxkSzY+y6H8jVunX4hmHnxYkSIjvu9D35PXns1br+hZuwes4sSJEe9R6Hv1evPWq4ZLVjSysre7EKT7YkkiMG4cTJ1w59FdqdxuvczCyEJlgZLA0AubFlES58nIy0eli1e5mVkLyMNmkVzYtIiXP8PZw9Bq9wkwEJ02RPLi9BDVEvIFutffcNkVXmxYKFIK4sfILtaL43ENPIqKJcR+0V5C9ZtxhvqPWGzP6NT/fkL++13eF6t5CWLq3Gfak6n2eQqbgqTcZtlDWGeL3fkJjTbiWDyOKMWo2KWmSUXkJMmDBYOWT18OeRiJ5tCCg9iViswf48iRJgyDF4PqWW0lGMx71v7DACtm3gf4IWfN5H49tVgNn7wwqc/pmJYhOi/wCGUtQnVjVn7M+PDyQZ+4E+yiyBkuwyojKrIszva7iJa/ofkR+gOJXa9FZsa5ChDixxV6WMeelcGJcGsdiDasFxPITcVeRlr0mvUb4TgszwYz/kXkHA7/SUeOwaq7dN3h2eQdEEL87mLmyjVHSxfkDHuo4Q2ZbEkb4L5Ar+hkIQhCEIJC7ASEi4HShPIF9UoQhCEIQmyXZoFa/IOtGa7kWQhCEIQSgkRDBz9O5pSlKUpSlKUpS8rg2jB5BieFIsELkvoWu4vO3Go8hjtF4tA0QhCDCJCbgdTG362+pdl5fSlKUpiMAIfIYD079BmnvGLP6VghLEilKUvjApSlKXmFKUpSl8BjdGSlL4IQhCEIQhCEIQhCEIQhCcgoww3GTN7EvQ7RIIEmuxds8AhCEIQhCEIQhCcrhOhGmyZPZU+DpBKJSNiE5zCEIQhCEIQhCEIQhCEIQhOcQmyEIQhCEIQn/fD//aAAwDAQACAAMAAAAQkkkkkkkkkkkkkkkkkkkkkkkkkkkkkkkkkkkkkkEAAAAAAAAAAAAAAAAAAAAAAAAAAAAAAAAAAAAAEgAAAAAAAAAAAAAAAAAAAAAAAAAAAAAAAAAAAAAkAAAAAAAAAAAAAAAAAAAAAAAAAAAAAAAAAAAAAEgAAAAAAAAAAAAAAAAAAAAAAAAAAAAAAAAAAAAAkAAAAAAAAAAAAAAAAAAAAAAAAAAAAAAAAAAAAAEgAAAAAAAAAAAAAAAAAAAAAAAAAAAAAAAAAAAAAkAAAAAAAAAAAAAAAAAAAAAAAAAAAAAAAAAAAAAEgAAAAAAAAAAAAAAdJ4wohRAAAAAAAAAAAAAAAAkAAAAAAAAAAAAAHbJP/wDZNJ6AAAAAAAAAAAAAABIAAAAAAAAAAAAMlW0kkksyAPQAAAAAAAAAAAAAJAAAAAAAAAAAAIvtttttttsTf6AAAAAAAAAAAABIAAAAAAAAAAAHVttttttttt+ZGAAAAAAAAAAAAJAAAAAAAAAAABdtt/8A/wD/AP8AbZLgBAAAAAAAAAAAASAAAAAAAAAABbMkkkkkkkkksorEAAAAAAAAAAACQAAAAAAAAAAZEkkkkggAAAA2qsEAAAAAAAAAAASAAAAAAAAAAFUASSSSRySSSSSb7UAAAAAAAAAACQAAAAAAAAAA2SSQAFY1+AAAADjSAAAAAAAAAAASAAAAAAAAABYAAAACMp0QIkAAhucAAAAAAAAAACQAAAAAAAAAQEkkkoSZgAIwkkkkuMAAAAAAAAAASAAAAAAAAACW222hhJgAAPSS224lgAAAAAAAAACQAAAAAAAAAUACSA5lAAAAKSAAS5wAAAAAAAAAASAAAAAAAAAAAAARRaUAAACOQSSM9AAAAAAAAAACQAAAAAAAAAHJtvjUsAAAANttttnIAAAAAAAAAASAAAAAAAAACJf/AA9iAAAAADbbbYzwAAAAAAAAAAkAAAAAAAAAAoxOjUAAAAAHe2ySW7AAAAAAAAAAEgAAAAAAAAAADXGxAAAAAAm222z/AEAAAAAAAAAAJAAAAAAAAAAAAAAAAAAAANkkksXswAAAAAAAAABIAAAAAAAAAAAAAAAAAAAB8SSSbUaAAAAAAAAAAJAAAAAAAAAAAAAAAAAAABSaaSRGiAAAAAAAAAABIAAAAAAAAAAAAAAAAAAAUJJJAckwAAAAAAAAAAJAAAAAAAAAAAAAAAAAABRJJJJHcQAAAAAAAAAABIAAAAAAAAAAAAAAAAAA6CSabfc+AAAAAAAAAAAJAAAAAAAAAAAAAAAAABmWW221mgAAAAAAAAAAABIAAAAAAAAAAAAAAAAB/wBJJJLHXEAAAAAAAAAAACQAAAAAAAAAAAAAAAAV7bbbbf8AsAAAAAAAAAAAAEgAAAAAAAAAAAAAAABG/wD/AP8A/CjAAAAAAAAAAAAAkAAAAAAAAAAAAAAAA5//AP8A/sYcAAAAAAAAAAAAASAAAAAAAAAAAAAAAA+TTaYLYwAAAAAAAAAAAAACQAAAAAAAAAAAAAAAZSySQ06EAAAAAAAAAAAAAASAAAAAAAAAAAAAAAfEkkkikUAAAAAAAAAAAAAACQAAAAAAAAAAAAAACwAAArBQAAAAAAAAAAAAAAASAAAAAAAAAAAAAAAQAAAA+IAAAAAAAAAAAAAAACQAAAAAAAAAAAAAACgEkjwsAAAAAAAAAAAAAAAASAAAAAAAAAAAAAAAMkkksMgAAAAAAAAAAAAAAACQAAAAAAAAAAAAAADAJIr20AAAAAAAAAAAAAAAASAAAAAAAAAAAAAAAJJJJa1AAAAAAAAAAAAAAAACQAAAAAAAAAAAAAAANttpGwAAAAAAAAAAAAAAAASAAAAAAAAAAAAAAAXtttdygAAAAAAAAAAAAAAACQAAAAAAAAAAAAAABVNttqgAAAAAAAAAAAAAAAASAAAAAAAAAAAAAAABFOztgAAAAAAAAAAAAAAAACQAAAAAAAAAAAAAAACf2gAAAAAAAAAAAAAAAAAASAAAAAAAAAAAAAAAAAAAAAAAAAAAAAAAAAAAAACQAAAAAAAAAAAAAQACABgQAAAAAAAAAAAAAAAAASAAAAAAAAAAAAAAAAXO5NAAAAAAAAAAAAAAAAACQAQACAQQCCCSSSSTkC8m8SSCCQAAAAAACACAAASAACSAQQSSSSSSSQDkwbjeSSSCQQCACAAQAAAAASSSSSSSSSSSSSSSeECQLx6SSSSSSSSSSSSSSSSCSSSSSSSSSSSSSSSUCTtxhWSSSSSSSSSSSSSSSQSSSSSSSSSSSSSSSIHt7LgtySSSSSSSSSSSSSSSCSSSSSSSSSSSSSSTpZP9HFaSSSSSSAAAAAAAAAQSSSSSSSSSSSAAAAbbA2kGQAAAACSSSSSSSSSSQQAAAAAAAAAAAAAAB0CSl1ISSAASQAAAAAAACSSCAAAAAAAAAAAACSSSxbbX1yQCQCSAAAAAASSQASAQAAAASSSSSSQAACEOLD0yQCQSASSSSSSSAASAQSQAACSSAASQACSQADxgsAQQQSAAASQASSASAQCQAAACSAASCQCQCQCAQQSCSAAQQQQQQCQCQCQCQAAAACSQASASCQQCSQAACCSQQSAAQQCASACSQACSAAACSSACQCASCQQCQCQQSQASQQQSCQCQASSQAACAAASSSACQASASQSASSSSSACQCQASASAASQAAACAAAACSSQAASSQACSSQAAAAACSASSAASSAAACSSQAAAAASSSSSSAAAAAACSSSSSAACSSQAAAASSSSSAAAAAAAAASSSSSSSSSSSSSSSQAAAAAASSSSSSSQAAAAAAAAAAAAAAAAAAAAAAAAAAASSSSSSSSSSSAQAAAAAAAAAAAAAAAAAAAQCSSSSSSSSSSSSSSSQSSSSSSSSSSSSSSSSSSSSSSSSSSSSSSSSSSSSSSAAAAAAAAAAAAAAAAAAAAAAAAAAAAAAAAAAAAAACf/8QALREBAAIABAQFBAIDAQAAAAAAAQARITAxQRBQUWAgYXGRsUCBodHh8HCQwfH/2gAIAQMBAT8Q/wBQztC2YgPuhd/0Jux9X9QPQ/mdL2o/xUf/AECblfZ/cd99QhoRmnUzW4RNefaDw67TEFb2JQ00eXCpXhqVNYIfAGHzgiXQfmY06mIpZ5c6pzbN8Xpt/MvaVm1ENmDDDYzrvCks0mPJT1Ji7ideb4MwN2UI++7K+hqBTZNdI44MHYvSIqeaWBwEBDQfSjEpZwFvSEAY8yqOxqwEFB9NUVMuLJc85bRG6nMCeswD9TUSpvh1wOYdfH4h9Sk1KY4NS5gLR5dUjoawzKl5eXlOYN5cNlERp5bXXq45YXKBcaCRuk8+EjCMECtxKyUjHBlzDG/LK7ZAyguAecdRVbY4TahV14Wh1D9CErJSa7ly/wDLlnwOUFwBhrEVHBQLYj8vCCTEhYujWJkMGEuOJUuOVqg9bylLmKtSpUs0aeNA27+ko4mQwcaH58r/AKvXJE6McZUow5NNephkiOvAYjyv0w5AXKVEtcCsiqtycX03JGE1cBgeVhtGD9RK8aLmKtS5c9EynSPLJOExOCoevLBucH5ijwBcUNvAXhdlnxOSI4uA0PXliKzWHX5YRauUlBrNFxjK42bYOJY2DMXJ8sliSosD68uVtVAwpqxbgr7xV1zautfjJdONh6DsBi1GGZ2yDwb52B/wP3AyBHwBHtFtt5+1Do1hBRpkuBHhUDfn/wDTxD+nkhHxsBptz/8A+/8AesCslwReGFtXn3v0ek/pdgVkhL2XEC2K+zbnuxTdlf8ACBWSEqUaxOnDd+bnvv0Yb04GUdjFW9+HStYttvPAOtP7GYFZShtjOXANsRW88BWiDj6tf1ArKUFsdRbhm2O7ee2PsfuCsoDbHUW4Ztju3nqAYRBoZRlsVRbgGIrefUNavxAyQFsZTWGfOKq3nymN4BDbJAWx1wM+cVW3n/p6BRkBcxVwG5iK3sD1C5BLGiOPDEtuwfXF/OTKLBMP3uwjXp5AuUgZ9gdhfhGWV/adhO08ssvwfHYVedLMpZL+dhCN3xPG4QzSKjhMVW3sI3rEPeGcNZgUS1ghbHVGnYsAHHWCxi2wEEXV8x7DSdAmu9kIHVPYhVPtw+IpWv8AhmrnkxLU7IxzA6sq/wCM1D33FFofSIqYomskxXEdiADtZuj+BLvAlgWinyhToPzKcTSM4Jh+72EFwr3Vr+oA8KGOxlbElTHzR7BxLp8oFeNL4ScLU7B9dv8AGTYQ0yoJnkwvYH4+VcwJLEdv59gVDpkrKyLYqXL59gVH3JcvxqPHhcPYNDtgpcuXLl8Llxy5izAmh2FhX+kPEUqIzR2GjWJAev1lkuXwYFxlzW5genY2ELDpwUdT8QmlswM1GbV/7dv/xAAlEQEAAgAGAgMAAwEAAAAAAAABABEQITAxUGAgQUBRYXBxkIH/2gAIAQIBAT8Q/wAhlDeI7Zxfoi/uftLfbLfbL/bD7p/WyxuQSCe+f3CI2yjnm6QyUdyUdmXBDfmwUC2M5RWuKIO2IFy4pRW/E2wryjflP+iNrb8YaweBEs5KtFVt+OlwfWDqDfIIFsRW/JSDhS08he186wrnAuXL1TBWvmozdoJgMJaC2iJvL1VZXGZxp3BMrhlhWIbouc2hokMHTxj2NMXKMQ8UvKW9UNnFrSBb4QeeQaRjt4vf0XGuD3o0cvDVtEXBWAW6Q2dIcazD60At8IK+HEGXFnxlyzby38MfEyXLm7jN574RN8M4NlEqVD5C9+OQZ+GBSUStZ5homI6AWi5Y3omIodA9LSMBbXQKcXUzL58BbEVukY5BzwC2OrdLeGF3PDNsVWy9IMKuVK50zEVumLlSp73OmLYit0wtxVvOgLY6t0wuV4BfPWPzTC5XgFwK530oukCyvALgVztS4r0gWV4BfP51aSRXgF8+tFxW3o2MqwC+gVU0QtlWAX0FZhqAUdBdvQFsGUit0Lf0DBcOS9C3dA6L7+gY7PQjWhMRR6FlGiaQb6GAUx3T54QJR0QxTGJeXn7lmyMb4Aro625gh+v4bsl9I3Rj9CXepb3C0uCIL0RQLYmQ2ly8Avcy3MpZLlz1vQ7n5L8bgwcbDoOWfeisXXQVldEYYXFYPQNzSGXM2bXQDT0wEqGR0DYdExC3oOURNAhKlRfQvQieRBKnteieyE8KiuAA6NuEfq4BIDeAG3+u3//EACsQAQACAAQDCAIDAQAAAAAAAAEAESExQVEwQGEQUHGBkaGxwSDRYOHw8f/aAAgBAQABPxD+GP8ADX+Gv8Nf4a/w1/hr/DXn6k/ogl+GvC9WiaQt/iE9rhPzczbeD4JZmfCs1Aeqab/EMZmB6U/AQKyPUH5Y3gwzbz4idN+AnzKQEumN7wEAOSN9wvOm0bTDHXlp5yw3xzfojrccL3mtItrFNZbeW3lt51oFrHbEPRlCCOi95haD0GVKB/jjM1aZfCMGVe436MPaUAsdP0cnn3m84Kif65iwyLe1t8xUVKbVbXsS74YjJi4ijL4jYOLcTV9wxeDpF7A0Y6UrqHk6Q46z8/B1515q9qlgOL1djrHGBZOT0IymfHFMoIRRggtp1PBhZg5ftCxEUTJIilyD5m8MGaxLHm3mcNo+mN3p8xT52msRY8m7iYLscx1isRw+JUzKRmZdTrATkwTmnmLerDbzu9CJGVaaxVbeVRTqQcD5dltxX/adYak9o5l5el4LeuwdY8OODQ0gjZvl3UurGeJdjBjnBf8AVcy8vq9cUcNf0y9Y65m5Ut8YNl9mdw6t8h+uYeWwOPI3V8j6lzV8TMHsZ1exmSI8K5SnSWBs9l86LBvqJVUYhqPLvLV67zCs3zfgi23wjbWWUJoEx0HQWn1EAp5/pEGK+r+5brpQWTAeMafwiwb5jTLUuEFjqMSDZcuYgzep/fLvK2ApHnMPbPyl7XCuTHFNDj/msPqfT5H6hMgNiFXIoAtZWDW5hcvFgcqyBXY4wVgCvCYGoGI9Gx+YDTg1jHmekuXZaf1MveuXeVqM4Al7H3FbfBKxj4tBm+jrB4if5dZhioHUBBlZPA6H4vBUNgkUWtkamz1JQJwKGX23JcEAaRsYY+gvGseWeVa4wL9D9vBoXBmexKHUau8rBIGK5BCLAWPTt+dNSnoDl65ecpIolI6PAdRh+jLlyyXH7X75Z5VrmnwODhhGsGOLoNvOFQZEVFzo0X1PLggWpB/40PAM+wKxLll7IHnZ9HLPKqjMOvUxfB68AHi3i0wN20zHFYrFy6sTfrDAgAAbcEa5jbvRPuGXAqGYfs+OLeifvlnlbMyUM1f0HygmH8gFsRtf2hijBr16+cYEQKrQEwRM1bbHCHX2eoQy4FDwQQYym/L6Q8qggCJSOsZPbU1NXTb0h9j+Bm1gg1OhNdj/AMY6QABQdm1Q5n06vDrRv8Lwb10lt5beO3ROWHlgUtT2Cag/fVBz88fGK8xCVAbRwAV6Q9YuqY+kzUTNYANYMglp70JWmGJp/biCa30gv2Rz4Fa7ddP9ZV5Y8x038TKoZ/usewngh9TKp5n6gGtDthfEsqjNgrik6sXxF+h6xcfzXCYFdexcZM0HUD9uWe6ruBJsEw5m02NDyKOBQpfWXLilq9YPonLPdQunoh6n2fKW7wK4sXsv+yLoLi+RCupgNA5Z7pbrAovy6EcleocVc3gLhM2Lb2PlAm+F8X6nLvdDYXoee0S4HlhkdA6RVW8Fb3sqYNB6ux5FHly73PWFMhzdiM6zkDgNj7Y9zwFolyo7GVFvmu4wX7MfAeYe5mNzAzT0/cty5DyNj9xrnhU2l3fA7KCSAZq5EoUOCdX9GXlzD3LsX5uL+jrMtZgMhsGhHuXgkLnWCvXpEwYsXtKnJYA9fqcy9yM9JA4v9dZ7e7jY6RHa8FaMYBFnm7SjSvfbxO0qEC2vggYBgBgHMvcdKY8AzWgdZi6GBuG0RLng5RGO1gY+K+Z0gAAoIcKs2mJQaXq7vNPcQ4BWjgEQIjpu9XViorwbiKdraUMxf8IQCghr4AN2GR66i35t7iyo4CD6fZ8o/R4K1CgdrDFpagRCggEcNTIQCXiZrnHuGtFRW8ZEcywrVeCtGMo7hq7QBhhqZsMBQStYDNyP7gmoM3Vd3nXuHLkb63+j5YyLwFotmW8ZsG5B6sAoFBL22zxOhDT5IOee4MzCvyJeQY3V4C0TLGM3aFMh94UFGASxNo/qIDYVAc+9wVCUJeDF+pYvAG5zBpWDN3YUFGAQlg5thKKSw7ge4KkcMJ1X9E1/OolaWu9CUIZEEoGK5Q2DXOu3l3C9wUK8GPkPvgBkhi+EwKF9hAyr80ae/wAdxPcFy6fo1+blFIM8EoBGrMxHmAfBfcR7g/3935uUzV2VPE39g+u4nuC0d/1b++AO1YNx7j67ie4Foq9HKfceA7mmCaQDqSfmP33E9wWKLLmziPrfrBsv8m3AzY8wBD5rlxyl4G8FehB0O4nuC+Y1dOvlFiYsnAaMPwLVBV0IoVby2SrpBLUwAIqoHi7NjuN7hpUNCxP6i90BX6tPOI5U+cHzA84BpCaLTaYPODFdgB4XFsTDbFKAA6rFe5HuJBKSyNrYbr9SotdPQ/bBBBq35GFTTIAO53+GvcvWjgBFaC/41j1K7Gvcz3Ewoehb9HnLQ8Oh7H7ga7VQ/uBan1D8wDas6QBuLld1PYcvKPCNgW43R08HuR7gO8O1RjJ3ZQ9X6JgR9IzRsB3GVHtglT3niwTj+qLoBmdgpDWpYOy6Pcbz4IgAtXSK4wtbzdHMXDsqVMoti2QyBxIYkrsbHlArnoPcTz9ZSRGtDn64HrGs0lSpUqVKi9KFW0z7Xcabzn+vy7ic+fQB+QlvmVKlSpUqVKmNcmDhEEGziONqXjRfcLz9lvT7EqVKlSpUqVATEzIfXmE2gvJi5uF3C8+1JhQ9DggFoxivRNLmFAl85kfTk7/K+A58/WxqXqY/ftGrwAFkz2VGqbHkDg3Lly5cuXLly5cuXLly5cuXLly5cuXGac8RRl8lFcSkaR0/MAsypKmEO1YsB0/t2XLly5cuXyAAAuXLly5cuXLlxe4GtXKtHeV4nYqVKlSvFjW6E6EagxivuekuXLly5cvsXLly5cuXLly5cuXLly5cuXLly5cuXLi8rcuXLly5cuXLlwKAUUjrHiPiOfg3Ji0lMuTwTwQBiwWqt6hTzWH2iphmowPKXLly5cuXLly5cuX2l9i5cuXLly5cuXLly5cuXLlxeRuXLly5cuXLly/zAcbf0Hz3jamaBV9wLR1x+yMZXrf4jYp/wawMCNjHtaysrKSnDDi5cuXwqlSpUqVKicpcuXLly5fBBq7xBrEtYiMXlpfeW3l95feW/CCwuUy0tyw/0AqJzbG43FRCIQeUJCZdg3AhrSDVesToxGrEwB1haFwFg4KEEEnGgAKlSpUqVKlSpUqJzVSpUSJG+kUzEXhTSJif+RTaM6wBvAm8BvBQWkA0gTSEkVKlSpXbUqVybydSpUqVKlSpXNB/wAKlSpUqVK5J5OpUqVKlSpUqVKldpXEABUqVKlSpUqVKlSpUqVKlSpUrivJ1+FSpXZUqVKlSpUqVKlSpUqVKlSpUqVKlSpUqV2VK5V7prtqVKlSudZp/DH+Gv8Nc5cuXLly5cuXLly5cuXLly5cuXLly5cuXLly5cuXLly5cuXLly5cuXLly5cuXLly5cuXLly5cuXLly5cuXLly5cuXLiz/2Q==;" vertex="1" parent="2">
                    <mxGeometry x="460" y="50" width="272" height="272" as="geometry"/>
                </mxCell>
            </root>
        </mxGraphModel>
    </diagram>
</mxfile>